<svg id="Capa_1" enable-background="new 0 0 512 512" height="512" viewBox="0 0 512 512" width="512" xmlns="http://www.w3.org/2000/svg" xmlns:xlink="http://www.w3.org/1999/xlink"><linearGradient id="SVGID_1_" gradientUnits="userSpaceOnUse" x1="256" x2="256" y1="512" y2="0"><stop offset="0" stop-color="#5558ff"/><stop offset="1" stop-color="#00c0ff"/></linearGradient><g><g><path d="m256 0c-140.959 0-256 115.049-256 256 0 140.958 115.049 256 256 256 140.958 0 256-115.05 256-256 0-140.959-115.05-256-256-256zm225.49 241h-63.07c-4.746-13.382-15.649-23.871-29.29-28.041-2.399-27.327-7.08-53.58-13.783-77.753 19.985-6.033 38.246-13.781 54.695-23.219 29.445 35.523 48.232 80.175 51.448 129.013zm-120.49 14.995c.002-7.149 5.033-14.344 15.007-14.967 7.151-.448 14.993 6.045 14.993 14.972 0 7.859-6.139 15.094-15.743 14.962-7.924-.391-14.254-6.939-14.257-14.958 0-.002 0-.003 0-.005s0-.002 0-.004zm47.663-166.484c-12.938 6.812-27.13 12.536-42.534 17.152-8.296-22.264-19.488-44.728-34.286-63.556 28.722 10.263 54.778 26.176 76.82 46.404zm-137.663-56.989c31.541 10.559 53.744 50.238 65.784 81.314-12.382 2.403-25.401 4.204-39.036 5.4-4.808-11.93-14.579-21.34-26.748-25.656zm0 145.898c13.346-4.733 23.817-15.589 28.009-29.179 16.543-1.402 32.305-3.643 47.259-6.712 6.199 22.181 10.566 46.413 12.86 71.765-11.879 4.823-21.245 14.573-25.548 26.706h-62.58zm0 92.58h62.58c4.303 12.133 13.669 21.883 25.548 26.706-2.294 25.353-6.66 49.584-12.86 71.765-14.954-3.069-30.716-5.31-47.259-6.712-4.193-13.59-14.664-24.445-28.009-29.178zm-15-150c7.318 0 14.4 5.256 14.976 15.023.423 7.167-6.092 14.977-14.976 14.977-8.996 0-15.393-7.907-14.976-14.977.566-9.608 7.507-15.023 14.976-15.023zm-75.843-77.894c-14.797 18.828-25.99 41.291-34.286 63.556-15.404-4.616-29.597-10.34-42.534-17.152 22.042-20.227 48.098-36.14 76.82-46.404zm-29.157 212.894c0 7.62-5.341 14.248-15.179 14.991-8.188-.097-14.821-6.781-14.821-14.991s6.633-14.894 14.821-14.991c.058.004.114.016.172.02 9.844.62 15.007 7.725 15.007 14.971zm-69.041-144.013c16.449 9.438 34.71 17.186 54.695 23.219-6.703 24.173-11.384 50.426-13.783 77.753-13.642 4.17-24.544 14.659-29.29 28.041h-63.071c3.216-48.838 22.003-93.49 51.449-129.013zm-51.449 159.013h63.07c4.746 13.382 15.649 23.871 29.29 28.041 2.399 27.327 7.08 53.58 13.783 77.753-19.985 6.033-38.246 13.782-54.695 23.219-29.445-35.523-48.232-80.175-51.448-129.013zm72.827 151.489c12.938-6.812 27.13-12.536 42.534-17.151 8.296 22.264 19.488 44.728 34.286 63.556-28.722-10.263-54.777-26.177-76.82-46.405zm137.663 56.989c-31.543-10.56-53.745-50.241-65.784-81.313 12.382-2.403 25.401-4.204 39.036-5.4 4.808 11.929 14.579 21.339 26.748 25.655zm0-145.898c-13.346 4.733-23.817 15.589-28.009 29.178-16.543 1.402-32.305 3.643-47.259 6.712-6.2-22.181-10.566-46.413-12.86-71.765 11.879-4.823 21.245-14.573 25.548-26.706h62.58zm0-92.58h-62.58c-4.303-12.133-13.669-21.883-25.548-26.706 2.294-25.353 6.66-49.584 12.86-71.765 14.954 3.069 30.716 5.31 47.259 6.712 4.192 13.59 14.664 24.445 28.009 29.179zm0-147.42c-12.169 4.316-21.94 13.725-26.748 25.655-13.635-1.196-26.654-2.997-39.036-5.4 12.019-31.022 34.219-70.746 65.784-81.313zm29.976 282.397c-.012.203-.001.402-.005.604-.309 8.001-6.896 14.419-14.971 14.419s-14.662-6.418-14.971-14.419c-.004-.202.007-.401-.005-.604-.003-.049-.013-.096-.016-.145.092-8.193 6.778-14.832 14.992-14.832s14.9 6.639 14.991 14.832c-.003.049-.013.095-.015.145zm.024 103.501v-61.058c12.169-4.316 21.94-13.726 26.748-25.655 13.635 1.196 26.654 2.997 39.036 5.4-12.019 31.022-34.219 70.746-65.784 81.313zm60.843-10.584c14.801-18.832 25.992-41.297 34.286-63.556 15.405 4.616 29.597 10.339 42.534 17.151-22.043 20.228-48.098 36.142-76.82 46.405zm98.198-68.881c-16.449-9.438-34.71-17.186-54.695-23.219 6.703-24.173 11.384-50.426 13.783-77.753 13.641-4.17 24.544-14.659 29.29-28.051h63.07c-3.215 48.848-22.002 93.5-51.448 129.023z" fill="url(#SVGID_1_)"/></g></g></svg>